<svg id="gear-light-active" xmlns="http://www.w3.org/2000/svg" width="256" height="256" viewBox="0 0 256 256">
  <rect id="Rectangle_785" data-name="Rectangle 785" width="256" height="256" fill="none"/>
  <circle id="Ellipse_332" data-name="Ellipse 332" cx="40" cy="40" r="40" transform="translate(88 88)" fill="none" stroke="#01c38d" stroke-linecap="round" stroke-linejoin="round" stroke-width="12"/>
  <path id="Path_875" data-name="Path 875" d="M41.43,178.09A99.14,99.14,0,0,1,31.36,153.8l16.78-21a81.589,81.589,0,0,1,0-9.64l-16.77-21a99.43,99.43,0,0,1,10.05-24.3l26.71-3a81,81,0,0,1,6.81-6.81l3-26.7a99.14,99.14,0,0,1,24.26-9.99l21,16.78a81.587,81.587,0,0,1,9.64,0l21-16.77a99.43,99.43,0,0,1,24.3,10.05l3,26.71a81,81,0,0,1,6.81,6.81l26.7,3a99.141,99.141,0,0,1,10.07,24.29l-16.78,21a81.587,81.587,0,0,1,0,9.64l16.77,21a99.43,99.43,0,0,1-10,24.3l-26.71,3a81,81,0,0,1-6.81,6.81l-3,26.7a99.139,99.139,0,0,1-24.29,10.07l-21-16.78a81.587,81.587,0,0,1-9.64,0l-21,16.77a99.429,99.429,0,0,1-24.3-10l-3-26.71a81,81,0,0,1-6.81-6.81Z" fill="none" stroke="#01c38d" stroke-linecap="round" stroke-linejoin="round" stroke-width="12"/>
</svg>
