<svg id="house-light-active" xmlns="http://www.w3.org/2000/svg" width="256" height="256" viewBox="0 0 256 256">
  <rect id="Rectangle_789" data-name="Rectangle 789" width="256" height="256" fill="none"/>
  <path id="Path_880" data-name="Path 880" d="M152,208V160a8,8,0,0,0-8-8H112a8,8,0,0,0-8,8v48a8,8,0,0,1-8,8H48a8,8,0,0,1-8-8V115.54a8,8,0,0,1,2.619-5.919l80-75.541a8,8,0,0,1,10.77,0l80,75.54a8,8,0,0,1,2.62,5.92V208a8,8,0,0,1-8,8H160A8,8,0,0,1,152,208Z" fill="none" stroke="#01c38d" stroke-linecap="round" stroke-linejoin="round" stroke-width="12"/>
</svg>
