<svg xmlns="http://www.w3.org/2000/svg" width="25.072" height="24.495" viewBox="0 0 25.072 24.495">
  <g id="icon-calendar-white" transform="translate(-1 -1.5)">
    <path id="Path_343" data-name="Path 343" d="M15.843,25H11.229c-4.35,0-6.526,0-7.877-1.352S2,20.117,2,15.766V13.459c0-4.35,0-6.526,1.352-7.877S6.879,4.23,11.229,4.23h4.614c4.35,0,6.526,0,7.877,1.352s1.352,3.527,1.352,7.877v2.307c0,4.35,0,6.526-1.352,7.877a4.977,4.977,0,0,1-3.262,1.234M7.768,4.23V2.5M19.3,4.23V2.5M24.5,10h-12.4M2,10H6.47" transform="translate(0 0)" fill="none" stroke="#fff" stroke-linecap="round" stroke-width="2"/>
    <path id="Path_344" data-name="Path 344" d="M19.3,17.6A1.109,1.109,0,1,1,18.2,16.48,1.114,1.114,0,0,1,19.3,17.6m0-4.48A1.109,1.109,0,1,1,18.2,12,1.114,1.114,0,0,1,19.3,13.12M13.761,17.6a1.109,1.109,0,1,1-1.109-1.12,1.114,1.114,0,0,1,1.109,1.12m0-4.48A1.109,1.109,0,1,1,12.652,12a1.114,1.114,0,0,1,1.109,1.12M8.217,17.6a1.109,1.109,0,1,1-1.109-1.12A1.114,1.114,0,0,1,8.217,17.6m0-4.48A1.109,1.109,0,1,1,7.109,12a1.114,1.114,0,0,1,1.109,1.12" transform="translate(0.884 1.747)" fill="#fff"/>
  </g>
</svg>
