<svg xmlns="http://www.w3.org/2000/svg" width="25.066" height="26.455" viewBox="0 0 25.066 26.455">
  <g id="icon-settings-white" transform="translate(-1.567 -1)">
    <circle id="Ellipse_97" data-name="Ellipse 97" cx="3" cy="3" r="3" transform="translate(11.1 11.228)" fill="none" stroke="#fff" stroke-width="2"/>
    <path id="Path_345" data-name="Path 345" d="M3.9,12.565a1.93,1.93,0,0,1,0,3.326,3.04,3.04,0,0,0-.827.68,2.446,2.446,0,0,0-.484,1.808,6.122,6.122,0,0,0,.917,1.963,6.156,6.156,0,0,0,1.241,1.777,2.446,2.446,0,0,0,1.808.484,3.013,3.013,0,0,0,1-.377,1.933,1.933,0,0,1,2.882,1.664,2.99,2.99,0,0,0,.175,1.055,2.445,2.445,0,0,0,1.324,1.324,6.1,6.1,0,0,0,2.158.186,6.1,6.1,0,0,0,2.158-.186,2.446,2.446,0,0,0,1.324-1.324,3.019,3.019,0,0,0,.175-1.055,1.933,1.933,0,0,1,2.882-1.664,3.018,3.018,0,0,0,1,.377,2.446,2.446,0,0,0,1.807-.484,6.117,6.117,0,0,0,1.24-1.777c.254-.44.451-.781.6-1.067m-.99-3.382a1.933,1.933,0,0,1,0-3.328,3.035,3.035,0,0,0,.827-.679,2.446,2.446,0,0,0,.484-1.808,6.122,6.122,0,0,0-.917-1.963,6.156,6.156,0,0,0-1.241-1.777,2.446,2.446,0,0,0-1.808-.484,3.028,3.028,0,0,0-1,.377,1.932,1.932,0,0,1-2.881-1.664,2.99,2.99,0,0,0-.175-1.055,2.446,2.446,0,0,0-1.324-1.324A6.1,6.1,0,0,0,14.1,2a6.1,6.1,0,0,0-2.158.186A2.446,2.446,0,0,0,10.618,3.51a3.018,3.018,0,0,0-.175,1.055A1.933,1.933,0,0,1,7.561,6.23a3.018,3.018,0,0,0-1-.377,2.446,2.446,0,0,0-1.807.484,6.16,6.16,0,0,0-1.24,1.777c-.254.44-.451.781-.6,1.067" fill="none" stroke="#fff" stroke-linecap="round" stroke-width="2"/>
  </g>
</svg>
