<svg xmlns="http://www.w3.org/2000/svg" width="25.01" height="24.435" viewBox="0 0 25.01 24.435">
  <path id="icon-booking-white" d="M20.408,18.032h-2.3m0,0h-2.3m2.3,0v-2.3m0,2.3v2.3M7.752,4.226V2.5m11.5,1.726V2.5m5.177,7.478H12.067M2,9.978H6.458m9.348,14.956H11.2c-4.339,0-6.508,0-7.856-1.348S2,20.069,2,15.731v-2.3C2,9.091,2,6.921,3.348,5.574S6.865,4.226,11.2,4.226h4.6c4.339,0,6.508,0,7.856,1.348S25.01,9.091,25.01,13.43v2.3c0,4.339,0,6.508-1.348,7.856a4.964,4.964,0,0,1-3.254,1.231" transform="translate(-1 -1.5)" fill="none" stroke="#fff" stroke-linecap="round" stroke-width="2"/>
</svg>
