<svg xmlns="http://www.w3.org/2000/svg" width="24.997" height="25.143" viewBox="0 0 24.997 25.143">
  <path id="icon-home-white" d="M17.043,20.515H10.1M24.722,14.68,24.4,16.922c-.564,3.92-.846,5.88-2.206,7.051s-3.353,1.171-7.342,1.171h-2.56c-3.989,0-5.983,0-7.342-1.171s-1.642-3.13-2.206-7.051L2.421,14.68c-.44-3.051-.66-4.578-.034-5.882S4.345,6.7,7.007,5.115l1.6-.955C11.026,2.72,12.236,2,13.572,2s2.545.72,4.962,2.16l1.6.955C22.8,6.7,24.13,7.494,24.756,8.8" transform="translate(-1.093 -1)" fill="none" stroke="#fff" stroke-linecap="round" stroke-width="2"/>
</svg>
