<svg xmlns="http://www.w3.org/2000/svg" width="50.327" height="50.327" viewBox="0 0 50.327 50.327">
  <path id="Icon_material-call" data-name="Icon material-call" d="M14.621,26.28A42.355,42.355,0,0,0,33.047,44.706L39.2,38.555a2.78,2.78,0,0,1,2.852-.671,31.893,31.893,0,0,0,9.982,1.594,2.8,2.8,0,0,1,2.8,2.8v9.758a2.8,2.8,0,0,1-2.8,2.8A47.527,47.527,0,0,1,4.5,7.3,2.8,2.8,0,0,1,7.3,4.5h9.786a2.8,2.8,0,0,1,2.8,2.8,31.763,31.763,0,0,0,1.594,9.982,2.806,2.806,0,0,1-.7,2.852Z" transform="translate(-4.5 -4.5)" fill="#fff"/>
</svg>
