<svg xmlns="http://www.w3.org/2000/svg" width="53" height="52" viewBox="0 0 53 52">
  <g id="icon-whatsapp-secondary" transform="translate(-1667 -634)">
    <rect id="Rectangle_413" data-name="Rectangle 413" width="53" height="52" transform="translate(1667 634)" fill="rgba(255,255,255,0)"/>
    <path id="icon-material-whatsapp-secondary" d="M34.856,8.207A20.322,20.322,0,0,0,2.883,32.723L0,43.246l10.771-2.828a20.253,20.253,0,0,0,9.709,2.471h.009A20.51,20.51,0,0,0,41,22.574,20.4,20.4,0,0,0,34.856,8.207ZM20.489,39.467a16.855,16.855,0,0,1-8.6-2.352l-.613-.366L4.887,38.424l1.7-6.232-.4-.641a16.918,16.918,0,1,1,31.378-8.977A17.074,17.074,0,0,1,20.489,39.467ZM29.75,26.82c-.5-.256-3-1.482-3.468-1.647s-.805-.256-1.144.256-1.309,1.647-1.611,1.995-.595.384-1.1.128c-2.983-1.492-4.941-2.663-6.909-6.04-.522-.9.522-.833,1.492-2.773a.941.941,0,0,0-.046-.888c-.128-.256-1.144-2.754-1.565-3.77-.412-.988-.833-.851-1.144-.869-.293-.018-.631-.018-.97-.018a1.88,1.88,0,0,0-1.354.631,5.7,5.7,0,0,0-1.775,4.237,9.944,9.944,0,0,0,2.068,5.253c.256.339,3.578,5.463,8.675,7.668,3.221,1.391,4.484,1.51,6.095,1.272.979-.146,3-1.226,3.422-2.416a4.245,4.245,0,0,0,.293-2.416C30.592,27.2,30.253,27.067,29.75,26.82Z" transform="translate(1673.502 637.252)" fill="#132d46"/>
  </g>
</svg>
