<svg xmlns="http://www.w3.org/2000/svg" width="53" height="52" viewBox="0 0 53 52">
  <g id="icon-email-secondary" transform="translate(-1401 -596)">
    <rect id="Rectangle_411" data-name="Rectangle 411" width="53" height="52" transform="translate(1401 596)" fill="rgba(255,255,255,0)"/>
    <g id="icon-email" transform="translate(1401.877 604.261)">
      <path id="Path_976" data-name="Path 976" d="M54.2,10.39l-13.255,13.5a.238.238,0,0,0,0,.345l9.276,9.88a1.6,1.6,0,0,1,0,2.267,1.606,1.606,0,0,1-2.267,0l-9.239-9.843a.253.253,0,0,0-.357,0l-2.254,2.291a9.918,9.918,0,0,1-7.071,2.981,10.117,10.117,0,0,1-7.219-3.067l-2.168-2.205a.253.253,0,0,0-.357,0l-9.239,9.843a1.606,1.606,0,0,1-2.267,0,1.6,1.6,0,0,1,0-2.267l9.276-9.88a.262.262,0,0,0,0-.345L3.794,10.39a.243.243,0,0,0-.419.172V37.577a3.954,3.954,0,0,0,3.942,3.942H50.679a3.954,3.954,0,0,0,3.942-3.942V10.562A.246.246,0,0,0,54.2,10.39Z" transform="translate(-3.375 -6.041)" fill="#132d46"/>
      <path id="Path_977" data-name="Path 977" d="M28.358,30.431a6.7,6.7,0,0,0,4.817-2.02L52.5,8.737a3.872,3.872,0,0,0-2.439-.862H6.665a3.846,3.846,0,0,0-2.439.862L23.554,28.41A6.7,6.7,0,0,0,28.358,30.431Z" transform="translate(-2.735 -7.875)" fill="#132d46"/>
    </g>
  </g>
</svg>
