<svg xmlns="http://www.w3.org/2000/svg" width="53" height="52" viewBox="0 0 53 52">
  <g id="icon-call-secondary" transform="translate(-1534 -633)">
    <rect id="Rectangle_412" data-name="Rectangle 412" width="53" height="52" transform="translate(1534 633)" fill="rgba(255,255,255,0)"/>
    <path id="icon-material-call-secondary" d="M42.363,35.037a32.757,32.757,0,0,0-6.843-4.579c-2.051-.985-2.8-.964-4.254.081-1.208.873-1.99,1.685-3.381,1.381s-4.132-2.376-6.792-5.025-4.731-5.4-5.025-6.792.518-2.173,1.381-3.381c1.046-1.452,1.076-2.2.081-4.254a32.109,32.109,0,0,0-4.579-6.843c-1.492-1.492-1.827-1.168-2.65-.873A15.078,15.078,0,0,0,7.875,6.042,7.32,7.32,0,0,0,4.961,9.118c-.579,1.249-1.249,3.574,2.162,9.645a53.817,53.817,0,0,0,9.462,12.619h0l.01.01.01.01h0a54.027,54.027,0,0,0,12.619,9.462c6.071,3.411,8.4,2.741,9.645,2.162a7.2,7.2,0,0,0,3.076-2.914,15.079,15.079,0,0,0,1.289-2.426C43.53,36.865,43.865,36.53,42.363,35.037Z" transform="translate(1537.01 635)" fill="#132d46"/>
  </g>
</svg>
