<svg xmlns="http://www.w3.org/2000/svg" width="55" height="55" viewBox="0 0 55 55">
  <g id="Icon-1" transform="translate(-805 -1401)">
    <rect id="Rectangle_283" data-name="Rectangle 283" width="55" height="55" transform="translate(805 1401)" fill="#01c38d" opacity="0"/>
    <path id="SolarCalendarAddBroken" d="M30.128,26.233H26.612m0,0H23.1m3.516,0V22.717m0,3.516v3.516M10.79,5.137V2.5M28.37,5.137V2.5m7.911,11.427h-18.9M2,13.927H8.812M23.1,36.781H16.064c-6.629,0-9.945,0-12-2.06S2,29.346,2,22.717V19.2c0-6.629,0-9.945,2.06-12s5.374-2.06,12-2.06H23.1c6.629,0,9.945,0,12,2.06s2.06,5.374,2.06,12v3.516c0,6.629,0,9.945-2.06,12-1.148,1.15-2.686,1.658-4.972,1.881" transform="translate(812.5 1409)" fill="none" stroke="#01c38d" stroke-linecap="round" stroke-width="3.5"/>
  </g>
</svg>
