<svg xmlns="http://www.w3.org/2000/svg" width="33" height="33" viewBox="0 0 33 33">
  <g id="icon-delete" transform="translate(-1418.19 -1004.876)">
    <rect id="Rectangle_416" data-name="Rectangle 416" width="33" height="33" transform="translate(1418.19 1004.876)" fill="rgba(255,255,255,0)"/>
    <path id="Icon_material-delete-forever" data-name="Icon material-delete-forever" d="M8.937,27.494a2.883,2.883,0,0,0,2.874,2.874h11.5a2.883,2.883,0,0,0,2.874-2.874V10.249H8.937Zm3.535-10.232L14.5,15.235l3.061,3.047,3.047-3.047,2.026,2.026-3.047,3.047,3.047,3.047-2.026,2.026L17.56,22.335l-3.047,3.047-2.026-2.026,3.047-3.047ZM22.59,5.937,21.153,4.5H13.967L12.53,5.937H7.5V8.811H27.62V5.937Z" transform="translate(1417.13 1004.137)" fill="#e03131"/>
  </g>
</svg>
