<svg xmlns="http://www.w3.org/2000/svg" width="33" height="33" viewBox="0 0 33 33">
  <g id="icon-pin" transform="translate(-1418.19 -1004.876)">
    <rect id="Rectangle_416" data-name="Rectangle 416" width="33" height="33" transform="translate(1418.19 1004.876)" fill="rgba(255,255,255,0)"/>
    <path id="Icon_metro-pin" data-name="Icon metro-pin" d="M23.646,22.534l-9.506-5.488A2.439,2.439,0,1,0,11.7,21.27l9.5,5.488a2.439,2.439,0,0,0,2.44-4.224ZM15.807,16.6,23.2,20.868l2.515-7-5.105-2.947-4.8,5.676Zm-5.45,17.977,7.073-8.591L14.26,24.156l-3.9,10.42ZM28.77,10,22.434,6.342A1.829,1.829,0,0,0,20.6,9.51l6.337,3.659A1.829,1.829,0,1,0,28.77,10Z" transform="translate(1414.669 1001.039)" fill="#64590e"/>
  </g>
</svg>
